PathFileType	4	(X/Y/Z) rotbonepin.trc
DataRate	CameraRate	NumFrames	NumMarkers	Units	OrigDataRate	OrigDataStartFrame	OrigNumFrames
100	100	26	11	mm	100	1181	3147
Frame#	Time	gu			centelbow			EpL			centpxt8			centijc7			ij			ts			ac			ai			acc			ijc
		X1	Y1	Z1	X2	Y2	Z2	X3	Y3	Z3	X4	Y4	Z4	X5	Y5	Z5	X6	Y6	Z6	X7	Y7	Z7	X8	Y8	Z8	X9	Y9	Z9  X10	Y10	Z10  X11	Y11	Z11
1180	11.8	319.986	21.396	11.768	380.558	27.598	259.967	376.1	55.783	253.497	338.249	-169.375	-112.175	324.079	24.848	-142.17	368.302	-7.827	-136.6	246.763	-23.75	-65.482	305.485	58.104	-11.996	295.572	-126.809	-5.271	305.485	58.104	-11.996	368.302	-7.827	-136.6
1181	11.81	320.077	21.422	11.674	380.737	27.549	259.853	376.359	55.745	253.373	338.273	-169.382	-112.193	324.133	24.837	-142.229	368.351	-7.844	-136.656	246.772	-23.719	-65.546	305.585	58.084	-12.082	295.528	-126.822	-5.366	305.585	58.084	-12.082	368.351	-7.844	-136.656
1182	11.82	320.318	21.519	11.631	380.944	27.604	259.819	376.65	55.809	253.323	338.29	-169.398	-112.237	324.169	24.821	-142.285	368.384	-7.864	-136.711	246.843	-23.672	-65.566	305.713	58.089	-12.101	295.557	-126.813	-5.417	305.713	58.089	-12.101	368.384	-7.864	-136.711
1183	11.83	320.491	21.613	11.578	381.001	27.681	259.795	376.804	55.895	253.275	338.281	-169.402	-112.259	324.182	24.819	-142.302	368.393	-7.871	-136.727	246.879	-23.612	-65.542	305.791	58.104	-12.056	295.54	-126.794	-5.42	305.791	58.104	-12.056	368.393	-7.871	-136.727
1184	11.84	320.434	21.61	11.477	380.882	27.681	259.709	376.803	55.905	253.16	338.255	-169.382	-112.243	324.182	24.84	-142.292	368.389	-7.856	-136.718	246.862	-23.533	-65.532	305.843	58.122	-12.028	295.442	-126.769	-5.438	305.843	58.122	-12.028	368.389	-7.856	-136.718
1185	11.85	320.325	21.549	11.391	380.795	27.669	259.616	376.846	55.903	253.029	338.234	-169.346	-112.216	324.181	24.874	-142.284	368.384	-7.827	-136.717	246.862	-23.424	-65.571	305.96	58.146	-12.067	295.334	-126.734	-5.516	305.96	58.146	-12.067	368.384	-7.827	-136.717
1186	11.86	320.493	21.561	11.404	380.953	27.818	259.629	377.122	56.058	252.998	338.236	-169.326	-112.225	324.189	24.893	-142.306	368.391	-7.812	-136.75	246.932	-23.284	-65.642	306.171	58.187	-12.143	295.285	-126.679	-5.64	306.171	58.187	-12.143	368.391	-7.812	-136.75
1187	11.87	320.927	21.665	11.498	381.262	28.112	259.748	377.521	56.353	253.072	338.266	-169.338	-112.273	324.22	24.881	-142.355	368.423	-7.825	-136.809	247.04	-23.107	-65.703	306.4	58.271	-12.195	295.288	-126.585	-5.758	306.4	58.271	-12.195	368.423	-7.825	-136.809
1188	11.88	321.238	21.716	11.554	381.403	28.319	259.841	377.743	56.562	253.126	338.302	-169.357	-112.311	324.268	24.863	-142.392	368.469	-7.847	-136.852	247.105	-22.911	-65.736	306.549	58.396	-12.213	295.272	-126.452	-5.835	306.549	58.396	-12.213	368.469	-7.847	-136.852
1189	11.89	321.2	21.632	11.495	381.306	28.32	259.795	377.732	56.566	253.048	338.314	-169.357	-112.321	324.303	24.863	-142.411	368.5	-7.853	-136.876	247.092	-22.741	-65.76	306.616	58.511	-12.243	295.2	-126.329	-5.891	306.616	58.511	-12.243	368.5	-7.853	-136.876
1190	11.9	321.034	21.517	11.368	381.264	28.243	259.636	377.771	56.494	252.866	338.303	-169.342	-112.344	324.314	24.877	-142.451	368.508	-7.845	-136.927	247.061	-22.625	-65.795	306.689	58.569	-12.306	295.116	-126.261	-5.968	306.689	58.569	-12.306	368.508	-7.845	-136.927
1191	11.91	321.067	21.5	11.282	381.476	28.236	259.507	378.048	56.491	252.722	338.288	-169.332	-112.408	324.323	24.888	-142.523	368.513	-7.844	-137.02	247.103	-22.535	-65.822	306.839	58.586	-12.342	295.091	-126.235	-6.051	306.839	58.586	-12.342	368.513	-7.844	-137.02
1192	11.92	321.314	21.56	11.285	381.782	28.292	259.495	378.4	56.55	252.7	338.275	-169.344	-112.492	324.35	24.88	-142.591	368.533	-7.864	-137.114	247.212	-22.42	-65.81	307.033	58.619	-12.3	295.121	-126.195	-6.105	307.033	58.619	-12.3	368.533	-7.864	-137.114
1193	11.93	321.54	21.607	11.311	381.925	28.326	259.542	378.587	56.587	252.736	338.251	-169.38	-112.546	324.387	24.853	-142.625	368.56	-7.908	-137.163	247.287	-22.264	-65.786	307.184	58.693	-12.239	295.114	-126.114	-6.146	307.184	58.693	-12.239	368.56	-7.908	-137.163
1194	11.94	321.596	21.61	11.293	381.877	28.31	259.549	378.597	56.575	252.731	338.216	-169.422	-112.545	324.422	24.815	-142.628	368.583	-7.962	-137.169	247.272	-22.085	-65.809	307.282	58.792	-12.267	295.017	-126.003	-6.223	307.282	58.792	-12.267	368.583	-7.962	-137.169
1195	11.95	321.58	21.602	11.237	381.812	28.295	259.506	378.602	56.564	252.671	338.19	-169.455	-112.516	324.458	24.782	-142.627	368.608	-8.009	-137.168	247.241	-21.906	-65.883	307.398	58.895	-12.392	294.904	-125.885	-6.338	307.398	58.895	-12.392	368.608	-8.009	-137.168
1196	11.96	321.684	21.639	11.193	381.882	28.361	259.469	378.733	56.632	252.616	338.181	-169.47	-112.509	324.486	24.765	-142.644	368.631	-8.035	-137.195	247.298	-21.755	-65.954	307.581	58.983	-12.508	294.887	-125.783	-6.435	307.581	58.983	-12.508	368.631	-8.035	-137.195
1197	11.97	321.927	21.726	11.166	382.039	28.497	259.462	378.938	56.769	252.591	338.183	-169.468	-112.537	324.506	24.768	-142.678	368.648	-8.04	-137.247	247.44	-21.636	-65.978	307.786	59.054	-12.532	294.966	-125.704	-6.478	307.786	59.054	-12.532	368.648	-8.04	-137.247
1198	11.98	322.113	21.804	11.124	382.104	28.577	259.449	379.055	56.852	252.565	338.192	-169.448	-112.566	324.527	24.789	-142.708	368.667	-8.024	-137.292	247.553	-21.541	-65.978	307.927	59.111	-12.506	295.021	-125.642	-6.49	307.927	59.111	-12.506	368.667	-8.024	-137.292
1199	11.99	322.11	21.842	11.05	382.016	28.553	259.397	379.038	56.832	252.502	338.2	-169.404	-112.58	324.546	24.831	-142.739	368.684	-7.986	-137.334	247.575	-21.476	-66.001	307.99	59.136	-12.515	294.978	-125.611	-6.521	307.99	59.136	-12.515	368.684	-7.986	-137.334
1200	12	322.047	21.867	10.96	381.907	28.522	259.319	379.006	56.806	252.412	338.204	-169.352	-112.615	324.562	24.88	-142.801	368.698	-7.943	-137.412	247.577	-21.44	-66.058	308.06	59.124	-12.577	294.913	-125.613	-6.59	308.06	59.124	-12.577	368.698	-7.943	-137.412
1201	12.01	322.133	21.915	10.893	381.901	28.558	259.275	379.066	56.845	252.352	338.217	-169.33	-112.711	324.594	24.902	-142.903	368.727	-7.929	-137.543	247.641	-21.386	-66.119	308.194	59.131	-12.645	294.919	-125.597	-6.673	308.194	59.131	-12.645	368.727	-7.929	-137.543
1202	12.02	322.388	22.003	10.87	381.969	28.627	259.297	379.183	56.916	252.364	338.231	-169.349	-112.835	324.654	24.889	-143.005	368.78	-7.957	-137.676	247.733	-21.275	-66.157	308.343	59.196	-12.679	294.957	-125.525	-6.736	308.343	59.196	-12.679	368.78	-7.957	-137.676
1203	12.03	322.622	22.106	10.845	381.99	28.667	259.325	379.254	56.96	252.386	338.213	-169.376	-112.896	324.726	24.87	-143.055	368.837	-7.999	-137.742	247.78	-21.141	-66.178	308.452	59.278	-12.693	294.933	-125.435	-6.777	308.452	59.278	-12.693	368.837	-7.999	-137.742
1204	12.04	322.672	22.168	10.751	381.922	28.669	259.261	379.246	56.966	252.314	338.165	-169.365	-112.859	324.787	24.884	-143.053	368.879	-8.01	-137.741	247.782	-21.037	-66.216	308.544	59.321	-12.74	294.844	-125.378	-6.827	308.544	59.321	-12.74	368.879	-8.01	-137.741
1205	12.05	322.62	22.174	10.617	381.871	28.675	259.127	379.26	56.974	252.164	338.146	-169.325	-112.81	324.837	24.92	-143.059	368.917	-7.991	-137.754	247.81	-20.956	-66.286	308.675	59.343	-12.838	294.785	-125.342	-6.906	308.675	59.343	-12.838	368.917	-7.991	-137.754
